<svg xmlns="http://www.w3.org/2000/svg" xmlns:xlink="http://www.w3.org/1999/xlink" version="1.1" id="Layer_1" x="0px" y="0px" width="1200px" height="1200px" viewBox="0 0 1200 1200" enable-background="new 0 0 1200 1200" xml:space="preserve">
<g>
	<g>
		<g>
			<defs>
				<path id="SVGID_1_" d="M552.971,598.824c58.429-53.542,51.129-86.661,51.129-86.661      c-3.41-100.778-104.913-101.596-104.913-101.596H308.256v78.391l50.454,0.818v220.552h-51.123v78.871h194.271      c95.423-2.435,100.778-89.581,100.778-89.581C607.991,640.211,552.971,598.824,552.971,598.824z M441.484,495.123h75.465v56.477      h-75.465V495.123z M518.41,707.891h-76.926v-62.319h76.926V707.891z"/>
			</defs>
            <clipPath id="SVGID_2_">
				<use xlink:href="#SVGID_1_" overflow="visible"/>
			</clipPath>
            <g clip-path="url(#SVGID_2_)">
				<rect x="50" y="737.811" fill="#FFFFFF" width="1048.275" height="22.709"/>
                <rect x="50" y="759.453" width="1048.275" height="29.343"/>
                <rect x="50" y="690.589" fill="#FFFFFF" width="1048.275" height="22.709"/>
                <rect x="50" y="712.227" width="1048.275" height="29.338"/>
                <rect x="50" y="639.427" fill="#FFFFFF" width="1048.275" height="22.715"/>
                <rect x="50" y="661.07" width="1048.275" height="29.334"/>
                <rect x="50" y="588.261" fill="#FFFFFF" width="1048.275" height="22.715"/>
                <rect x="50" y="609.909" width="1048.275" height="29.337"/>
                <rect x="50" y="537.1" fill="#FFFFFF" width="1048.275" height="22.724"/>
                <rect x="50" y="558.748" width="1048.275" height="29.337"/>
                <rect x="50" y="489.877" fill="#FFFFFF" width="1048.275" height="22.709"/>
                <rect x="50" y="511.525" width="1048.275" height="29.337"/>
                <rect x="50" y="438.716" fill="#FFFFFF" width="1048.275" height="22.725"/>
                <rect x="50" y="460.358" width="1048.275" height="29.349"/>
                <rect x="50" y="409.197" width="1048.275" height="29.349"/>
			</g>
		</g>
        <g>
			<defs>
				<polygon id="SVGID_3_" points="624.062,489.285 624.062,410.41 769.639,410.41 832.93,580.82 893.788,411.384 1040.336,411.384       1040.336,488.304 990.188,488.304 990.188,710.327 1040.336,710.327 1040.336,788.217 909.856,788.217 909.856,570.594       832.93,787.743 755.026,570.111 755.026,788.217 623.084,788.217 623.084,709.346 675.178,709.346 675.178,489.775     "/>
			</defs>
            <clipPath id="SVGID_4_">
				<use xlink:href="#SVGID_3_" overflow="visible"/>
			</clipPath>
            <g clip-path="url(#SVGID_4_)">
				<rect x="50" y="737.811" fill="#FFFFFF" width="1048.275" height="22.709"/>
                <rect x="50" y="759.453" width="1048.275" height="29.343"/>
                <rect x="50" y="690.589" fill="#FFFFFF" width="1048.275" height="22.709"/>
                <rect x="50" y="712.227" width="1048.275" height="29.338"/>
                <rect x="50" y="639.427" fill="#FFFFFF" width="1048.275" height="22.715"/>
                <rect x="50" y="661.07" width="1048.275" height="29.334"/>
                <rect x="50" y="588.261" fill="#FFFFFF" width="1048.275" height="22.715"/>
                <rect x="50" y="609.909" width="1048.275" height="29.337"/>
                <rect x="50" y="537.1" fill="#FFFFFF" width="1048.275" height="22.724"/>
                <rect x="50" y="558.748" width="1048.275" height="29.337"/>
                <rect x="50" y="489.877" fill="#FFFFFF" width="1048.275" height="22.709"/>
                <rect x="50" y="511.525" width="1048.275" height="29.337"/>
                <rect x="50" y="438.716" fill="#FFFFFF" width="1048.275" height="22.725"/>
                <rect x="50" y="460.358" width="1048.275" height="29.349"/>
                <rect x="50" y="409.197" width="1048.275" height="29.349"/>
			</g>
		</g>
        <g>
			<defs>
				<polygon id="SVGID_5_" points="94.851,788.217 94.851,709.697 147.571,709.697 147.571,489.1 94.106,489.1 94.106,411.7       280.31,411.7 280.31,487.966 229.461,487.966 229.461,710.078 281.061,710.078 281.061,787.838     "/>
			</defs>
            <clipPath id="SVGID_6_">
				<use xlink:href="#SVGID_5_" overflow="visible"/>
			</clipPath>
            <g clip-path="url(#SVGID_6_)">
				<rect x="50" y="737.811" fill="#FFFFFF" width="1048.275" height="22.709"/>
                <rect x="50" y="759.453" width="1048.275" height="29.343"/>
                <rect x="50" y="690.589" fill="#FFFFFF" width="1048.275" height="22.709"/>
                <rect x="50" y="712.227" width="1048.275" height="29.338"/>
                <rect x="50" y="639.427" fill="#FFFFFF" width="1048.275" height="22.715"/>
                <rect x="50" y="661.07" width="1048.275" height="29.334"/>
                <rect x="50" y="588.261" fill="#FFFFFF" width="1048.275" height="22.715"/>
                <rect x="50" y="609.909" width="1048.275" height="29.337"/>
                <rect x="50" y="537.1" fill="#FFFFFF" width="1048.275" height="22.724"/>
                <rect x="50" y="558.748" width="1048.275" height="29.337"/>
                <rect x="50" y="489.877" fill="#FFFFFF" width="1048.275" height="22.709"/>
                <rect x="50" y="511.525" width="1048.275" height="29.337"/>
                <rect x="50" y="438.716" fill="#FFFFFF" width="1048.275" height="22.725"/>
                <rect x="50" y="460.358" width="1048.275" height="29.349"/>
                <rect x="50" y="409.197" width="1048.275" height="29.349"/>
			</g>
		</g>
	</g>
</g>
</svg>